<svg width="28" height="28" viewBox="0 0 28 28" fill="none" xmlns="http://www.w3.org/2000/svg">
<circle cx="14" cy="14" r="12.5" stroke="#CACACA" stroke-width="3"/>
<path d="M14 16C16.2091 16 18 14.2091 18 12C18 9.79086 16.2091 8 14 8C11.7909 8 10 9.79086 10 12C10 14.2091 11.7909 16 14 16Z" fill="#CACACA"/>
<path d="M22 23V24C22 24.2652 21.8946 24.5196 21.7071 24.7071C21.5196 24.8946 21.2652 25 21 25H7C6.73478 25 6.48043 24.8946 6.29289 24.7071C6.10536 24.5196 6 24.2652 6 24V23C6 21.4087 6.63214 19.8826 7.75736 18.7574C8.88258 17.6321 10.4087 17 12 17H16C17.5913 17 19.1174 17.6321 20.2426 18.7574C21.3679 19.8826 22 21.4087 22 23V23Z" fill="#CACACA"/>
</svg>
