<svg width="33" height="27" viewBox="0 0 33 27" fill="none" xmlns="http://www.w3.org/2000/svg">
<path d="M32.0814 3.27453C32.0814 1.58878 30.7148 0.222221 29.0291 0.222221H3.88565C2.1999 0.222221 0.833336 1.58878 0.833336 3.27453V23.1699C0.833336 24.8557 2.1999 26.2222 3.88565 26.2222H29.0291C30.7148 26.2222 32.0814 24.8557 32.0814 23.1699V3.27453V3.27453ZM3.902 2.66145H29.053C29.3896 2.66145 29.6606 2.92992 29.6606 3.26657V3.29305L16.9085 16.0465C16.753 16.202 16.5721 16.2253 16.4776 16.2253C16.3832 16.2253 16.2017 16.202 16.0461 16.0465L3.29105 3.29131V3.26657C3.29105 2.92992 3.56539 2.66145 3.902 2.66145ZM29.053 23.783H3.902C3.56539 23.783 3.29105 23.5043 3.29105 23.1676V6.7446L14.3198 17.7732C14.8963 18.3497 15.6629 18.6671 16.4782 18.6671C17.2936 18.6671 18.0587 18.3495 18.6352 17.7731L29.6606 6.74632V23.1676C29.6606 23.5043 29.3896 23.783 29.053 23.783Z" fill="#CACACA"/>
</svg>
